<?xml version="1.0" encoding="UTF-8"?>
<svg xmlns="http://www.w3.org/2000/svg" xmlns:xlink="http://www.w3.org/1999/xlink" viewBox="0 0 150 150">
  <defs>
    <style>
      .cls-1 {
        fill: none;
      }

      .cls-2 {
        fill: url(#linear-gradient-5);
      }

      .cls-3 {
        fill: url(#linear-gradient-4);
      }

      .cls-4 {
        fill: url(#linear-gradient-3);
      }

      .cls-5 {
        fill: url(#linear-gradient-2);
      }

      .cls-6 {
        fill: url(#linear-gradient);
      }

      .cls-7 {
        isolation: isolate;
      }

      .cls-8 {
        fill: #d0d2d3;
        mix-blend-mode: multiply;
      }

      .cls-9 {
        clip-path: url(#clippath);
      }
    </style>
    <linearGradient id="linear-gradient" x1="2.5" y1="75" x2="147.5" y2="75" gradientUnits="userSpaceOnUse">
      <stop offset="0" stop-color="#009588"/>
      <stop offset="1" stop-color="#40bdad"/>
    </linearGradient>
    <clipPath id="clippath">
      <rect class="cls-1" x="2.5" y="2.5" width="145" height="145" rx="33.83" ry="33.83"/>
    </clipPath>
    <linearGradient id="linear-gradient-2" x1="36.56" y1="32.85" x2="116" y2="111.4" gradientUnits="userSpaceOnUse">
      <stop offset=".16" stop-color="#fff"/>
      <stop offset="1" stop-color="#bbbdbf"/>
    </linearGradient>
    <linearGradient id="linear-gradient-3" x1="31.38" y1="38.09" x2="110.82" y2="116.64" xlink:href="#linear-gradient-2"/>
    <linearGradient id="linear-gradient-4" x1="53.47" y1="15.75" x2="132.91" y2="94.3" xlink:href="#linear-gradient-2"/>
    <linearGradient id="linear-gradient-5" x1="14.52" y1="55.13" x2="93.96" y2="133.69" xlink:href="#linear-gradient-2"/>
  </defs>
  <g class="cls-7">
    <g id="Layer_1">
      <g>
        <rect class="cls-6" x="2.5" y="2.5" width="145" height="145" rx="33.83" ry="33.83"/>
        <g class="cls-9">
          <polygon class="cls-8" points="147.5 94.67 115.92 36.63 115.92 113.07 113.07 115.92 81.05 115.92 68.95 115.92 34.72 114.86 71 167.8 147.5 167.8 147.5 94.67"/>
        </g>
        <g>
          <rect class="cls-5" x="34.08" y="34.08" width="37.72" height="29.94" rx="2.85" ry="2.85"/>
          <rect class="cls-4" x="78.2" y="90.15" width="37.72" height="25.77" rx="2.85" ry="2.85"/>
          <path class="cls-3" d="M78.2,36.93v43.85c0,1.57,1.28,2.85,2.85,2.85h32.02c1.57,0,2.85-1.28,2.85-2.85v-43.85c0-1.57-1.28-2.85-2.85-2.85h-32.02c-1.57,0-2.85,1.28-2.85,2.85ZM97.06,56.13c4.64,0,8.41,3.77,8.41,8.41,0,3.63-2.32,6.73-5.56,7.9v.82c0,1.57-1.28,2.85-2.85,2.85s-2.85-1.28-2.85-2.85v-.82c-3.23-1.17-5.56-4.26-5.56-7.9,0-1.57,1.28-2.85,2.85-2.85s2.85,1.28,2.85,2.85c0,1.49,1.21,2.7,2.7,2.7s2.7-1.21,2.7-2.7-1.21-2.7-2.7-2.7c-4.64,0-8.41-3.77-8.41-8.41,0-3.63,2.32-6.73,5.56-7.9v-.79c0-1.57,1.28-2.85,2.85-2.85s2.85,1.28,2.85,2.85v.79c3.23,1.17,5.56,4.26,5.56,7.9,0,1.57-1.28,2.85-2.85,2.85s-2.85-1.28-2.85-2.85c0-1.49-1.21-2.7-2.7-2.7s-2.7,1.21-2.7,2.7,1.21,2.7,2.7,2.7Z"/>
          <path class="cls-2" d="M34.08,73.18v39.89c0,1.57,1.28,2.85,2.85,2.85h32.02c1.57,0,2.85-1.28,2.85-2.85v-39.89c0-1.57-1.28-2.85-2.85-2.85h-32.02c-1.57,0-2.85,1.28-2.85,2.85ZM41.68,105.17c0-6.28,3.87-11.51,9-12.71-2.14-.89-3.65-3-3.65-5.46,0-3.26,2.65-5.91,5.91-5.91s5.91,2.65,5.91,5.91c0,2.46-1.51,4.57-3.65,5.46,5.14,1.2,9,6.44,9,12.71h-22.52Z"/>
        </g>
      </g>
    </g>
  </g>
</svg>